# xmcd
#
# Track frame offsets:
# 150
# 16231
# 29672
# 52670
# 67699
# 89192
# 108289
# 126689
# 139990
# 152929
# 169713
#
# Disc length: 2450 seconds
#
# Revision: 2
# Processed by: cddbd v1.5.1PL2 Copyright (c) Steve Scherf et al.
# Submitted via: Audio-CD-Archiv 4.00.530
#
DISCID=9609900b
DTITLE=Kenny Rogers - The Gambler
DYEAR=0000
DGENRE=country
TTITLE0=The Gambler
TTITLE1=I wish that I could hurt that way again
TTITLE2=King of Oak Street
TTITLE3=Making music for money
TTITLE4=The hoodooin' of Miss Fannie Debemy
TTITLE5=She believes in me
TTITLE6=Tennessee bottle
TTITLE7=Sleep tight goodnight man
TTITLE8=A little more like me
TTITLE9=San Francisco Mabel joy
TTITLE10=Margana Jones
EXTD=
EXTT0=
EXTT1=
EXTT2=
EXTT3=
EXTT4=
EXTT5=
EXTT6=
EXTT7=
EXTT8=
EXTT9=
EXTT10=
PLAYORDER=
